<svg width="33" height="36" viewBox="0 0 33 36" fill="none" xmlns="http://www.w3.org/2000/svg">
<path d="M31.0674 0.581543H2.31707C1.3323 0.581543 0.533997 1.44247 0.533997 2.50449V33.5101C0.533997 34.5721 1.3323 35.4331 2.31707 35.4331H31.0674C32.0521 35.4331 32.8504 34.5721 32.8504 33.5101V2.50449C32.8504 1.44247 32.0521 0.581543 31.0674 0.581543Z" fill="#3D5A98"/>
<path d="M22.8293 35.4303V21.9343H27.0289L27.6569 16.675H22.8293V13.3179C22.8293 11.7954 23.2225 10.7559 25.2458 10.7559H27.8289V6.04427C26.5781 5.90369 25.3211 5.83684 24.0635 5.84403C20.3444 5.84403 17.7831 8.2882 17.7831 12.7967V16.675H13.5835V21.9343H17.7831V35.4303H22.8293Z" fill="white"/>
</svg>
