<svg width="34" height="35" viewBox="0 0 34 35" fill="none" xmlns="http://www.w3.org/2000/svg">
<path d="M5.598 0.581543C3.02761 0.581543 0.937805 2.75479 0.937805 5.42782V29.6592C0.937805 32.3322 3.02761 34.5055 5.598 34.5055H28.899C31.4694 34.5055 33.5592 32.3322 33.5592 29.6592V5.42782C33.5592 2.75479 31.4694 0.581543 28.899 0.581543H5.598ZM27.2315 6.94228L19.6732 15.923L28.564 28.1447H21.6029L16.1563 20.7314L9.91596 28.1447H6.45722L14.5397 18.5355L6.01305 6.94228H13.149L18.0786 13.7195L23.7728 6.94228H27.2315ZM24.4791 25.9942L12.1077 8.97923H10.047L22.5567 25.9942H24.4718H24.4791Z" fill="black"/>
</svg>
